<svg xmlns="http://www.w3.org/2000/svg" width="1024" height="1024" viewBox="-44.582119822502136 -45.43229874968529 1113.5820922851562 1113.8972778320312" class="colorable-icon reset-top-left-margin" data-export-recolorable-svg="true" overflow="visible" xmlns:xlink="http://www.w3.org/1999/xlink" fill="rgb(0, 0, 0)" stroke="none"><g fill="none" stroke="url(&quot;#theme-accent-gradient-linear&quot;) rgb(8, 105, 196)" stroke-width="45" stroke-linecap="round" stroke-linejoin="round"><path d="M 775.38,902.15 C 769.48,903.67 766.55,903.61 760.78,901.97 L 604.42,832.45" data-line="nan" stroke-width="45.0" fill="none" stroke="url(&quot;#theme-accent-gradient-linear&quot;) rgb(8, 105, 196)"/><path d="M 933.56,832.63 C 933.52,922.21 932.49,934.05 929.52,943.05 C 923.7,952.08 918.02,957.41 908.84,962.93" data-line="nan" stroke-width="45.0" fill="none" stroke="url(&quot;#theme-accent-gradient-linear&quot;) rgb(8, 105, 196)"/><path d="M 774.37,1022.77 C 768.52,1024.0 765.62,1023.77 756.9,1020.67 C 628.37,961.92 619.31,956.52 613.98,951.41 C 609.92,945.48 607.23,939.44 604.83,927.96 L 604.42,834.08" data-line="nan" stroke-width="45.0" fill="none" stroke="url(&quot;#theme-accent-gradient-linear&quot;) rgb(8, 105, 196)"/><path d="M 776.42,799.71 C 767.48,801.07 758.76,798.72 608.7,735.29 L 514.34,693.83" data-line="nan" stroke-width="45.0" fill="none" stroke="url(&quot;#theme-accent-gradient-linear&quot;) rgb(8, 105, 196)"/><path d="M 947.49,726.71 C 947.44,787.6 946.57,809.74 945.46,815.3 Q 942.58,821.61 933.56,832.63" data-line="nan" stroke-width="45.0" fill="none" stroke="url(&quot;#theme-accent-gradient-linear&quot;) rgb(8, 105, 196)"/><path d="M 602.45,831.57 C 593.67,818.99 590.36,808.69 589.71,726.98" data-line="nan" stroke-width="45.0" fill="none" stroke="url(&quot;#theme-accent-gradient-linear&quot;) rgb(8, 105, 196)"/><path d="M 113.97,921.39 C 99.82,920.6 85.98,918.03 73.29,913.9 C 62.99,909.39 49.89,901.54 40.45,894.23 C 32.35,886.56 22.93,875.23 16.4,865.05 C 10.66,853.6 6.83,843.16 3.56,831.16 Q 0.72,809.83 0.52,765.45" data-line="nan" stroke-width="45.0" fill="none" stroke="url(&quot;#theme-accent-gradient-linear&quot;) rgb(8, 105, 196)"/><path d="M 101.49,0.67 C 88.09,2.03 75.15,5.36 61.14,10.91 C 52.16,15.73 40.72,23.7 31.46,31.88 C 23.05,41.38 15.52,52.28 10.19,62.14 C 5.89,72.8 2.36,85.59 0.64,95.8 C 0.0,107.62 0.64,126.38 3.92,157.22" data-line="nan" stroke-width="45.0" fill="none" stroke="url(&quot;#theme-accent-gradient-linear&quot;) rgb(8, 105, 196)"/><path d="M 704.35,216.68 L 113.06,215.75" data-line="0.0" stroke-width="45.0" fill="none" stroke="url(&quot;#theme-accent-gradient-linear&quot;) rgb(8, 105, 196)"/><path d="M 704.35,216.68 L 704.96,543.24" data-line="1.0" stroke-width="45.0" fill="none" stroke="url(&quot;#theme-accent-gradient-linear&quot;) rgb(8, 105, 196)"/><path d="M 511.09,921.56 L 113.97,921.39" data-line="2.0" stroke-width="45.0" fill="none" stroke="url(&quot;#theme-accent-gradient-linear&quot;) rgb(8, 105, 196)"/><path d="M 662.57,0.0 L 101.49,0.67" data-line="3.0" stroke-width="45.0" fill="none" stroke="url(&quot;#theme-accent-gradient-linear&quot;) rgb(8, 105, 196)"/><path d="M 662.0872459949519,-0.43229875956427577 A 162.90232572722698,162.90232572722698 0 0,0 660.5449189819346,215.16601135990328" data-line="4.0" stroke-width="45.0" fill="none" stroke="url(&quot;#theme-accent-gradient-linear&quot;) rgb(8, 105, 196)"/><path d="M 933.56,832.63 L 775.38,902.15" data-line="10.0" stroke-width="45.0" fill="none" stroke="url(&quot;#theme-accent-gradient-linear&quot;) rgb(8, 105, 196)"/><path d="M 908.84,962.93 L 774.37,1022.77" data-line="13.0" stroke-width="45.0" fill="none" stroke="url(&quot;#theme-accent-gradient-linear&quot;) rgb(8, 105, 196)"/><path d="M 1024.0,693.9 L 776.42,799.71" data-line="15.0" stroke-width="45.0" fill="none" stroke="url(&quot;#theme-accent-gradient-linear&quot;) rgb(8, 105, 196)"/><path d="M 770.71,587.01 L 514.34,693.83" data-line="16.0" stroke-width="45.0" fill="none" stroke="url(&quot;#theme-accent-gradient-linear&quot;) rgb(8, 105, 196)"/><path d="M 1024.0,693.9 L 770.71,587.01" data-line="17.0" stroke-width="45.0" fill="none" stroke="url(&quot;#theme-accent-gradient-linear&quot;) rgb(8, 105, 196)"/><path d="M 512.0,817.15 L 512.09,694.79" data-line="19.0" stroke-width="45.0" fill="none" stroke="url(&quot;#theme-accent-gradient-linear&quot;) rgb(8, 105, 196)"/><path d="M 113.05941258572729,216.17280466839384 A 127.16585447164016,127.16585447164016 0 0,1 5.351060793419663,156.32702214286306" data-line="20.0" stroke-width="45.0" fill="none" stroke="url(&quot;#theme-accent-gradient-linear&quot;) rgb(8, 105, 196)"/><path d="M 0.52,765.45 L 0.56,146.83" data-line="22.0" stroke-width="45.0" fill="none" stroke="url(&quot;#theme-accent-gradient-linear&quot;) rgb(8, 105, 196)"/></g></svg>