<svg xmlns="http://www.w3.org/2000/svg" width="1024" height="1024" viewBox="55.01899719238281 -40.995999813079834 914.0859985351562 1105.97998046875" class="colorable-icon reset-top-left-margin" data-export-recolorable-svg="true" overflow="visible" xmlns:xlink="http://www.w3.org/1999/xlink" fill="rgb(0, 0, 0)" stroke="none"><g fill="none" stroke="rgb(0, 0, 0)" stroke-width="45" stroke-linecap="round" stroke-linejoin="round"><path d="M 428.587,803.866 C 401.842,808.798 380.496,815.788 370.151,820.577 C 359.319,826.761 342.328,839.755 334.257,847.969 C 327.361,856.649 318.234,872.844 312.309,890.303 Q 310.423,901.037 309.598,911.568" data-line="nan" stroke-width="45.0" fill="none" stroke="rgb(0, 0, 0)"/><path d="M 812.955,1019.959 C 827.773,1019.598 840.897,1018.08 852.182,1015.489 C 863.813,1011.426 875.086,1005.791 883.956,999.899 C 893.017,992.292 902.932,981.489 909.799,971.607 C 914.224,963.151 919.131,950.69 921.808,940.432 Q 923.957,921.649 924.105,881.144" data-line="nan" stroke-width="45.0" fill="none" stroke="rgb(0, 0, 0)"/><path d="M 923.644,101.779 C 923.112,90.713 921.352,80.337 917.679,68.061 C 912.683,56.983 905.697,45.566 899.099,37.253 C 890.753,28.952 882.303,22.298 874.11,17.183 C 864.411,12.455 851.925,8.191 843.326,6.21 Q 824.341,4.177 783.652,4.004" data-line="nan" stroke-width="45.0" fill="none" stroke="rgb(0, 0, 0)"/><path d="M 207.228,4.078 C 194.333,4.351 181.394,5.876 170.388,8.422 C 158.427,12.705 148.335,17.821 136.753,25.654 C 128.063,33.505 121.283,41.308 114.95,50.307 C 109.805,60.006 105.731,70.205 102.519,81.942 Q 100.488,98.925 100.019,139.622" data-line="nan" stroke-width="45.0" fill="none" stroke="rgb(0, 0, 0)"/><path d="M 100.088,903.917 C 101.363,933.763 103.206,943.508 106.888,955.646 C 112.002,967.085 117.637,976.444 126.057,987.009 C 132.593,993.446 141.998,1000.804 151.654,1006.766 C 163.711,1012.156 174.71,1015.683 185.838,1017.926 Q 196.633,1019.071 228.577,1019.709" data-line="nan" stroke-width="45.0" fill="none" stroke="rgb(0, 0, 0)"/><circle cx="512.0560620828862" cy="629.9298788551442" r="111.87522386927294" data-line="0.0" stroke-width="45.0" fill="none" stroke="rgb(0, 0, 0)"/><path d="M 446.793,539.007 L 450.885,535.895" data-line="1.0" stroke-width="45.0" fill="none" stroke="rgb(0, 0, 0)"/><path d="M 470.975,376.76 L 681.93,166.198" data-line="3.0" stroke-width="45.0" fill="none" stroke="rgb(0, 0, 0)"/><path d="M 371.654,275.124 L 470.975,376.76" data-line="4.0" stroke-width="45.0" fill="none" stroke="rgb(0, 0, 0)"/><path d="M 592.7707255356632,804.6971782307158 A 162.5316984733147,162.5316984733147 0 0,1 428.95809776953126,803.2427620807789" data-line="8.0" stroke-width="45.0" fill="none" stroke="rgb(0, 0, 0)"/><path d="M 715.017,1019.984 L 714.563,912.741" data-line="9.0" stroke-width="45.0" fill="none" stroke="rgb(0, 0, 0)"/><path d="M 329.048,1019.968 L 812.955,1019.959" data-line="10.0" stroke-width="45.0" fill="none" stroke="rgb(0, 0, 0)"/><path d="M 714.563,912.741 C 722.4010703108295,854.127484210225 637.1953361990978,799.1314775499795 593.025,805.142" data-line="11.0" stroke-width="45.0" fill="none" stroke="rgb(0, 0, 0)"/><path d="M 309.598,911.568 L 309.395,1019.981" data-line="13.0" stroke-width="45.0" fill="none" stroke="rgb(0, 0, 0)"/><path d="M 924.105,881.144 L 923.644,101.779" data-line="13.0" stroke-width="45.0" fill="none" stroke="rgb(0, 0, 0)"/><path d="M 783.652,4.004 L 207.228,4.078" data-line="15.0" stroke-width="45.0" fill="none" stroke="rgb(0, 0, 0)"/><path d="M 100.019,139.622 L 100.088,903.917" data-line="17.0" stroke-width="45.0" fill="none" stroke="rgb(0, 0, 0)"/><path d="M 228.577,1019.709 L 329.048,1019.968" data-line="19.0" stroke-width="45.0" fill="none" stroke="rgb(0, 0, 0)"/></g></svg>