<svg xmlns="http://www.w3.org/2000/svg" width="1024" height="1024" viewBox="-41 -25.857999801635742 1106 1075.7159423828125" class="colorable-icon reset-top-left-margin" data-export-recolorable-svg="true" overflow="visible" xmlns:xlink="http://www.w3.org/1999/xlink" fill="rgb(0, 0, 0)" stroke="none"><g fill="none" stroke="rgb(0, 0, 0)" stroke-width="45" stroke-linecap="round" stroke-linejoin="round"><path d="M 295.908,25.825 C 232.561,22.089 190.639,20.859 145.241,29.02" data-line="nan" stroke-width="45.0" fill="none" stroke="rgb(0, 0, 0)"/><path d="M 321.614,43.918 C 368.714,70.728 385.284,81.144 409.004,98.094 C 431.411,116.776 452.735,137.37 469.994,156.91 C 489.436,181.926 507.368,208.951 521.255,234.444 C 532.304,259.23 541.927,286.594 549.042,314.502 C 552.505,334.267 554.672,353.653 556.209,436.765" data-line="nan" stroke-width="45.0" fill="none" stroke="rgb(0, 0, 0)"/><path d="M 748.31,480.712 C 747.946,408.681 746.947,380.873 742.872,347.642 Q 738.279,325.338 733.924,308.763" data-line="nan" stroke-width="45.0" fill="none" stroke="rgb(0, 0, 0)"/><path d="M 35.406,982.318 C 48.702,990.929 56.269,994.809 74.924,1001.251 C 85.294,1003.299 96.655,1004.36 118.674,1002.748 C 132.881,999.558 149.561,993.277 163.498,985.511 C 194.331,965.499 210.963,957.65 221.422,954.187 C 232.548,951.791 246.232,950.385 257.382,950.471 C 279.077,953.631 300.434,960.672 315.522,968.546 C 346.459,988.372 356.795,993.487 367.856,997.712 C 379.244,1000.852 390.973,1002.837 404.337,1003.871 C 415.476,1003.705 435.42,1000.87 454.672,994.596 C 471.39,985.768 503.72,965.322 522.452,956.465 C 533.206,953.08 544.114,950.97 553.94,949.914 C 565.022,949.804 587.352,952.816 598.372,955.82 C 609.332,959.929 627.819,969.468 660.251,990.524 C 678.48,998.789 697.271,1003.455 717.194,1004.858 C 737.227,1002.639 750.592,999.113 760.699,995.32 C 778.888,985.974 814.937,963.515 831.804,956.142 C 850.033,951.706 869.815,950.703 891.877,953.05 C 908.745,957.335 926.433,964.669 960.799,985.067 C 976.935,992.778 999.671,1000.02 1020.0,1002.678" data-line="nan" stroke-width="45.0" fill="none" stroke="rgb(0, 0, 0)"/><path d="M 353.413,366.201 C 352.613,332.94 350.767,310.639 347.391,288.229 C 342.436,266.082 334.118,238.283 325.616,216.194 C 315.127,193.805 302.419,171.532 291.308,154.902 C 278.297,138.152 258.815,116.654 242.468,100.53 C 220.49,82.745 189.067,62.717 145.241,29.02" data-line="nan" stroke-width="45.0" fill="none" stroke="rgb(0, 0, 0)"/><path d="M 733.924,308.763 C 724.512,281.051 711.893,253.065 695.804,225.088 C 676.431,197.501 653.293,169.843 631.946,148.421 C 610.151,129.29 582.022,107.865 554.733,90.091 C 526.689,74.612 499.044,61.76 471.016,50.899 C 443.432,42.042 410.068,33.427 381.847,27.873 L 327.779,19.142" data-line="nan" stroke-width="45.0" fill="none" stroke="rgb(0, 0, 0)"/><path d="M 4.0,21.555 L 145.241,29.02" data-line="0.0" stroke-width="45.0" fill="none" stroke="rgb(0, 0, 0)"/><path d="M 353.439,844.489 L 353.413,366.201" data-line="1.0" stroke-width="45.0" fill="none" stroke="rgb(0, 0, 0)"/><path d="M 748.575,848.183 L 748.31,480.712" data-line="5.0" stroke-width="45.0" fill="none" stroke="rgb(0, 0, 0)"/><path d="M 556.209,436.765 L 556.802,811.564" data-line="11.0" stroke-width="45.0" fill="none" stroke="rgb(0, 0, 0)"/></g></svg>