<svg xmlns="http://www.w3.org/2000/svg" width="1024" height="1024" viewBox="-22.69499969482422 -40.69399976730347 1069.8743896484375 1105.449951171875" class="colorable-icon reset-top-left-margin" data-export-recolorable-svg="true" overflow="visible" xmlns:xlink="http://www.w3.org/1999/xlink" fill="rgb(0, 0, 0)" stroke="none"><g fill="none" stroke="url(&quot;#theme-accent-gradient-linear&quot;) rgb(8, 105, 196)" stroke-width="45" stroke-linecap="round" stroke-linejoin="round"><path d="M 642.867,525.912 C 627.5,583.025 619.004,607.464 604.986,637.353 C 588.956,663.59 567.735,691.18 543.133,716.787 Q 515.204,740.126 484.761,760.529" data-line="nan" stroke-width="45.0" fill="none" stroke="url(&quot;#theme-accent-gradient-linear&quot;) rgb(8, 105, 196)"/><path d="M 812.372,614.628 C 770.586,590.913 749.347,581.166 727.79,572.871 C 706.227,566.166 684.793,560.978 634.668,553.078" data-line="nan" stroke-width="45.0" fill="none" stroke="url(&quot;#theme-accent-gradient-linear&quot;) rgb(8, 105, 196)"/><path d="M 332.857,552.285 C 294.82,558.474 266.628,565.115 237.008,574.865 C 209.598,586.584 182.354,600.984 152.574,620.294 C 127.329,640.061 103.777,662.316 83.621,685.668 C 67.493,708.928 53.039,734.971 41.828,760.844 C 32.822,788.631 26.349,818.168 23.028,846.347 L 22.305,876.325" data-line="nan" stroke-width="45.0" fill="none" stroke="url(&quot;#theme-accent-gradient-linear&quot;) rgb(8, 105, 196)"/><path d="M 642.867,525.912 C 630.107,475.616 622.629,455.987 615.686,442.682 C 609.265,432.641 600.736,421.341 589.554,409.33 C 578.794,399.733 567.667,391.615 554.72,383.914 C 541.678,377.843 526.99,372.731 513.178,369.42 C 498.561,367.296 481.381,366.597 466.36,367.627 C 449.546,370.531 436.569,374.132 423.809,379.005 C 411.064,385.304 398.18,393.363 385.432,403.248 C 373.177,415.046 365.871,423.474 356.396,436.586 C 348.92,449.36 342.941,462.21 336.015,484.419 L 327.125,531.458" data-line="nan" stroke-width="45.0" fill="none" stroke="url(&quot;#theme-accent-gradient-linear&quot;) rgb(8, 105, 196)"/><path d="M 812.287,308.184 C 813.553,295.54 816.732,282.766 822.226,269.829 L 830.392,256.731" data-line="nan" stroke-width="45.0" fill="none" stroke="url(&quot;#theme-accent-gradient-linear&quot;) rgb(8, 105, 196)"/><path d="M 714.97,203.397 C 712.093,181.834 706.767,160.23 698.95,138.746 C 690.719,121.548 680.526,104.412 667.749,87.095 C 656.219,74.199 638.668,58.032 621.297,44.943 C 604.312,34.446 582.646,23.833 561.31,15.864 C 539.794,10.054 518.354,6.236 496.782,4.306 C 471.802,4.329 451.057,6.259 429.605,10.104 C 408.515,15.838 386.84,23.906 365.494,34.297 C 348.279,44.866 331.152,57.61 314.534,72.714 C 299.542,89.41 287.0,106.535 276.721,123.865 C 266.946,145.099 261.082,162.286 256.208,183.719 Q 253.584,204.891 252.801,226.363" data-line="nan" stroke-width="45.0" fill="none" stroke="url(&quot;#theme-accent-gradient-linear&quot;) rgb(8, 105, 196)"/><path d="M 485.09232073945054,759.9238821173224 A 306.80147756001924,306.80147756001924 0 0,1 328.3160619485065,531.2994628694385" data-line="0.0" stroke-width="45.0" fill="none" stroke="url(&quot;#theme-accent-gradient-linear&quot;) rgb(8, 105, 196)"/><path d="M 812.058,1019.659 L 811.893,585.383" data-line="3.0" stroke-width="45.0" fill="none" stroke="url(&quot;#theme-accent-gradient-linear&quot;) rgb(8, 105, 196)"/><path d="M 812.058,1019.659 L 22.916,1019.756" data-line="4.0" stroke-width="45.0" fill="none" stroke="url(&quot;#theme-accent-gradient-linear&quot;) rgb(8, 105, 196)"/><path d="M 642.6941083964166,525.7779375819623 A 349.20230486313966,349.20230486313966 0 0,0 715.9186535822714,315.36149689871746" data-line="7.0" stroke-width="45.0" fill="none" stroke="url(&quot;#theme-accent-gradient-linear&quot;) rgb(8, 105, 196)"/><path d="M 814.5906551111193,617.7031122482026 A 313.38885624564534,313.38885624564534 0 0,1 939.7092923287655,802.231810671577" data-line="8.0" stroke-width="45.0" fill="none" stroke="url(&quot;#theme-accent-gradient-linear&quot;) rgb(8, 105, 196)"/><path d="M 22.305,876.325 L 22.916,1019.756" data-line="10.0" stroke-width="45.0" fill="none" stroke="url(&quot;#theme-accent-gradient-linear&quot;) rgb(8, 105, 196)"/><path d="M 715.87,315.361 L 714.97,203.397" data-line="11.0" stroke-width="45.0" fill="none" stroke="url(&quot;#theme-accent-gradient-linear&quot;) rgb(8, 105, 196)"/><path d="M 252.801,226.363 L 253.766,333.851" data-line="13.0" stroke-width="45.0" fill="none" stroke="url(&quot;#theme-accent-gradient-linear&quot;) rgb(8, 105, 196)"/><path d="M 253.4699233522993,333.8725568797815 A 369.9800135823448,369.9800135823448 0 0,0 327.9030124474761,530.8667437752498" data-line="14.0" stroke-width="45.0" fill="none" stroke="url(&quot;#theme-accent-gradient-linear&quot;) rgb(8, 105, 196)"/><path d="M 939.552,802.269 L 947.06,1017.486" data-line="15.0" stroke-width="45.0" fill="none" stroke="url(&quot;#theme-accent-gradient-linear&quot;) rgb(8, 105, 196)"/><path d="M 811.893,585.383 L 812.287,308.184" data-line="15.0" stroke-width="45.0" fill="none" stroke="url(&quot;#theme-accent-gradient-linear&quot;) rgb(8, 105, 196)"/><path d="M 830.7101259234474,256.954126629699 A 94.2812552274872,94.2812552274872 0 0,1 994.5730877603696,348.19266726760264" data-line="16.0" stroke-width="45.0" fill="none" stroke="url(&quot;#theme-accent-gradient-linear&quot;) rgb(8, 105, 196)"/></g></svg>