<svg xmlns="http://www.w3.org/2000/svg" width="1024" height="1024" viewBox="60.33899688720703 -41 903.322021484375 1105.9100341796875" class="colorable-icon reset-top-left-margin" data-export-recolorable-svg="true" overflow="visible" xmlns:xlink="http://www.w3.org/1999/xlink" fill="rgb(0, 0, 0)" stroke="none"><g fill="none" stroke="rgb(0, 0, 0)" stroke-width="45" stroke-linecap="round" stroke-linejoin="round"><path d="M 585.164,323.088 C 566.619,321.591 461.066,322.065 455.535,324.043 C 449.237,329.733 447.116,333.294 445.339,340.516" data-line="nan" stroke-width="45.0" fill="none" stroke="rgb(0, 0, 0)"/><path d="M 725.217,470.266 C 720.676,465.256 715.891,461.762 712.133,460.127 Q 705.106,458.822 590.221,459.041" data-line="nan" stroke-width="45.0" fill="none" stroke="rgb(0, 0, 0)"/><path d="M 918.661,967.943 C 918.178,979.641 915.651,989.552 908.854,1001.377 C 899.912,1010.023 890.194,1015.527 877.618,1018.942 Q 867.839,1019.822 848.335,1019.91" data-line="nan" stroke-width="45.0" fill="none" stroke="rgb(0, 0, 0)"/><path d="M 155.209,1019.813 C 144.056,1018.27 134.884,1015.347 125.575,1010.092 C 118.889,1004.124 114.048,997.718 110.151,988.827 Q 107.757,977.667 107.469,965.778" data-line="nan" stroke-width="45.0" fill="none" stroke="rgb(0, 0, 0)"/><path d="M 105.339,61.062 C 106.698,44.666 110.658,32.136 117.359,22.848 C 127.859,14.197 139.541,8.969 152.408,6.011 L 191.889,5.475" data-line="nan" stroke-width="45.0" fill="none" stroke="rgb(0, 0, 0)"/><path d="M 915.733,241.657 L 674.3,4.0" data-line="0.0" stroke-width="45.0" fill="none" stroke="rgb(0, 0, 0)"/><path d="M 915.733,241.657 L 750.759,242.348" data-line="1.0" stroke-width="45.0" fill="none" stroke="rgb(0, 0, 0)"/><path d="M 915.733,241.657 L 918.661,967.943" data-line="2.0" stroke-width="45.0" fill="none" stroke="rgb(0, 0, 0)"/><path d="M 590.221,459.041 L 585.164,323.088" data-line="7.0" stroke-width="45.0" fill="none" stroke="rgb(0, 0, 0)"/><path d="M 725.217,470.266 L 720.09,604.401" data-line="9.0" stroke-width="45.0" fill="none" stroke="rgb(0, 0, 0)"/><path d="M 720.09,604.401 L 589.336,605.869" data-line="10.0" stroke-width="45.0" fill="none" stroke="rgb(0, 0, 0)"/><path d="M 589.336,605.869 L 588.277,737.369" data-line="11.0" stroke-width="45.0" fill="none" stroke="rgb(0, 0, 0)"/><path d="M 588.277,737.369 L 446.27,736.422" data-line="12.0" stroke-width="45.0" fill="none" stroke="rgb(0, 0, 0)"/><path d="M 446.27,736.422 L 445.027,605.768" data-line="13.0" stroke-width="45.0" fill="none" stroke="rgb(0, 0, 0)"/><path d="M 445.027,605.768 L 312.312,602.257" data-line="14.0" stroke-width="45.0" fill="none" stroke="rgb(0, 0, 0)"/><path d="M 312.312,602.257 L 309.44,467.988" data-line="15.0" stroke-width="45.0" fill="none" stroke="rgb(0, 0, 0)"/><path d="M 445.339,340.516 L 445.08,459.007" data-line="16.0" stroke-width="45.0" fill="none" stroke="rgb(0, 0, 0)"/><path d="M 445.08,459.007 L 309.44,467.988" data-line="16.0" stroke-width="45.0" fill="none" stroke="rgb(0, 0, 0)"/><path d="M 750.7273444016901,242.07558403703393 A 71.97341015819542,71.97341015819542 0 0,1 672.5125644105856,153.46123621707213" data-line="17.0" stroke-width="45.0" fill="none" stroke="rgb(0, 0, 0)"/><path d="M 671.152,153.128 L 674.3,4.0" data-line="18.0" stroke-width="45.0" fill="none" stroke="rgb(0, 0, 0)"/><path d="M 848.335,1019.91 L 155.209,1019.813" data-line="19.0" stroke-width="45.0" fill="none" stroke="rgb(0, 0, 0)"/><path d="M 107.469,965.778 L 105.339,61.062" data-line="21.0" stroke-width="45.0" fill="none" stroke="rgb(0, 0, 0)"/><path d="M 191.889,5.475 L 674.3,4.0" data-line="22.0" stroke-width="45.0" fill="none" stroke="rgb(0, 0, 0)"/></g></svg>